<?xml version="1.0" encoding="UTF-8" standalone="no"?>
<svg
   role="img"
   width="190.50052"
   height="62.828697"
   viewBox="0 0 817.06009 268.9068"
   aria-label="Neovim"
   version="1.1"
   id="svg12"
   sodipodi:docname="logo.svg"
   inkscape:version="1.4.4 (dcaf3e7d9e, 2026-05-05)"
   xmlns:inkscape="http://www.inkscape.org/namespaces/inkscape"
   xmlns:sodipodi="http://sodipodi.sourceforge.net/DTD/sodipodi-0.dtd"
   xmlns="http://www.w3.org/2000/svg"
   xmlns:svg="http://www.w3.org/2000/svg"
   xmlns:rdf="http://www.w3.org/1999/02/22-rdf-syntax-ns#"
   xmlns:cc="http://creativecommons.org/ns#"
   xmlns:dc="http://purl.org/dc/elements/1.1/">
  <sodipodi:namedview
     id="namedview12"
     pagecolor="#ffffff"
     bordercolor="#000000"
     borderopacity="0.25"
     inkscape:showpageshadow="2"
     inkscape:pageopacity="0.0"
     inkscape:pagecheckerboard="0"
     inkscape:deskcolor="#d1d1d1"
     inkscape:zoom="5.3410405"
     inkscape:cx="90.431818"
     inkscape:cy="28.084416"
     inkscape:window-width="1261"
     inkscape:window-height="1380"
     inkscape:window-x="0"
     inkscape:window-y="0"
     inkscape:window-maximized="0"
     inkscape:current-layer="svg12" />
  <title
     id="title1">Neovim</title>
  <defs
     id="defs6">
    <linearGradient
       x1="49.021477"
       y1="-0.079846866"
       x2="49.021477"
       y2="97.846107"
       id="a"
       gradientTransform="scale(0.4615426,2.1666472)"
       gradientUnits="userSpaceOnUse">
      <stop
         stop-color="#16B0ED"
         stop-opacity=".8"
         offset="0%"
         id="stop1" />
      <stop
         stop-color="#0F59B2"
         stop-opacity=".837"
         offset="100%"
         id="stop2" />
    </linearGradient>
    <linearGradient
       x1="326.17334"
       y1="-0.069476359"
       x2="326.17334"
       y2="98.850868"
       id="b"
       gradientTransform="scale(0.46628427,2.1446145)"
       gradientUnits="userSpaceOnUse">
      <stop
         stop-color="#7DB643"
         offset="0%"
         id="stop3" />
      <stop
         stop-color="#367533"
         offset="100%"
         id="stop4" />
    </linearGradient>
    <linearGradient
       x1="103.88464"
       y1="-0.11535945"
       x2="103.88464"
       y2="178.55791"
       id="c"
       gradientTransform="scale(0.84203979,1.1875923)"
       gradientUnits="userSpaceOnUse">
      <stop
         stop-color="#88C649"
         stop-opacity=".8"
         offset="0%"
         id="stop5" />
      <stop
         stop-color="#439240"
         stop-opacity=".84"
         offset="100%"
         id="stop6" />
    </linearGradient>
  </defs>
  <rect
     style="fill:#ffffff;stroke:#999999;stroke-width:25.2721;stroke-linecap:round;stroke-linejoin:round"
     id="rect12"
     width="791.78796"
     height="244.20129"
     x="12.636063"
     y="12.352753" />
  <g
     fill="none"
     fill-rule="evenodd"
     id="g12"
     transform="translate(38.090788,27.53947)">
    <path
       d="M 0.027,45.459 45.224,-0.173 V 211.998 L 0.027,166.894 Z"
       fill="url(#a)"
       transform="translate(1,1)"
       id="path6"
       style="fill:url(#a)" />
    <path
       d="m 129.337,45.89 45.815,-46.039 -0.928,212.146 -45.197,-45.104 0.31,-121.005 z"
       fill="url(#b)"
       transform="matrix(-1,0,0,1,305,1)"
       id="path7"
       style="fill:url(#b)" />
    <path
       d="M 45.194,-0.137 162.7,179.173 129.818,212.054 12.25,33.141 Z"
       fill="url(#c)"
       transform="translate(1,1)"
       id="path8"
       style="fill:url(#c)" />
    <path
       d="M 46.234,84.032 46.171,91.095 9.891,37.532 13.251,34.11 Z"
       fill-opacity="0.13"
       fill="#000000"
       id="path9" />
    <g
       fill="#444444"
       id="g11">
      <path
         d="M 227,154 V 64.44 h 4.655 c 1.55,0 2.445,0.75 2.685,2.25 l 0.806,13.502 c 4.058,-5.16 8.786,-9.316 14.188,-12.466 5.4,-3.15 11.413,-4.726 18.037,-4.726 4.893,0 9.205,0.781 12.935,2.34 3.729,1.561 6.817,3.811 9.264,6.751 2.448,2.942 4.297,6.48 5.55,10.621 1.253,4.14 1.88,8.821 1.88,14.042 V 154 h -8.504 V 96.754 c 0,-8.402 -1.91,-14.987 -5.729,-19.757 -3.82,-4.771 -9.667,-7.156 -17.544,-7.156 -5.851,0 -11.28,1.516 -16.292,4.545 -5.013,3.032 -9.489,7.187 -13.427,12.467 V 154 Z M 350.624,63 c 5.066,0 9.755,0.868 14.069,2.605 4.312,1.738 8.052,4.268 11.219,7.592 3.167,3.324 5.638,7.412 7.419,12.264 1.779,4.852 2.669,10.422 2.669,16.709 0,1.318 -0.195,2.216 -0.588,2.696 -0.393,0.48 -1.01,0.719 -1.851,0.719 h -64.966 v 1.7 c 0,6.708 0.784,12.609 2.353,17.7 1.567,5.09 3.8,9.357 6.695,12.802 2.895,3.445 6.393,6.034 10.495,7.771 4.1,1.738 8.686,2.606 13.752,2.606 4.524,0 8.446,-0.494 11.762,-1.483 3.317,-0.988 6.108,-2.097 8.37,-3.324 2.261,-1.227 4.056,-2.336 5.383,-3.324 1.326,-0.988 2.292,-1.482 2.895,-1.482 0.784,0 1.388,0.3 1.81,0.898 l 2.352,2.875 c -1.448,1.797 -3.362,3.475 -5.745,5.031 -2.383,1.558 -5.038,2.891 -7.962,3.998 -2.926,1.109 -6.062,1.991 -9.41,2.65 a 52.21,52.21 0 0 1 -10.088,0.989 c -6.152,0 -11.762,-1.064 -16.828,-3.19 -5.067,-2.125 -9.415,-5.225 -13.043,-9.298 -3.63,-4.074 -6.435,-9.06 -8.415,-14.96 C 310.99,121.655 310,114.9 310,107.294 c 0,-6.408 0.92,-12.323 2.76,-17.744 1.84,-5.421 4.493,-10.093 7.961,-14.016 3.467,-3.922 7.72,-6.991 12.758,-9.209 C 338.513,64.11 344.229,63 350.624,63 Z m 0.573,6 c -4.696,0 -8.904,0.702 -12.623,2.105 -3.721,1.404 -6.936,3.421 -9.65,6.053 -2.713,2.631 -4.908,5.79 -6.586,9.474 C 320.66,90.316 319.55,94.439 319,99 h 60 c 0,-4.679 -0.672,-8.874 -2.013,-12.588 -1.343,-3.712 -3.232,-6.856 -5.67,-9.43 -2.44,-2.571 -5.367,-4.545 -8.782,-5.92 C 359.122,69.688 355.343,69 351.197,69 Z m 84.349,-6 c 6.526,0 12.368,1.093 17.524,3.28 5.154,2.186 9.5,5.286 13.04,9.298 3.538,4.013 6.238,8.85 8.099,14.51 1.861,5.66 2.791,11.994 2.791,19.002 0,7.008 -0.932,13.327 -2.791,18.957 -1.861,5.631 -4.561,10.452 -8.099,14.465 -3.54,4.012 -7.886,7.097 -13.04,9.254 -5.156,2.156 -10.998,3.234 -17.524,3.234 -6.529,0 -12.369,-1.078 -17.525,-3.234 -5.155,-2.157 -9.517,-5.242 -13.085,-9.254 -3.57,-4.013 -6.285,-8.836 -8.145,-14.465 -1.861,-5.63 -2.791,-11.95 -2.791,-18.957 0,-7.008 0.93,-13.342 2.791,-19.002 1.861,-5.66 4.576,-10.496 8.145,-14.51 3.568,-4.012 7.93,-7.112 13.085,-9.299 C 423.177,64.094 429.017,63 435.546,63 Z m -0.501,86 c 5.341,0 10.006,-0.918 13.997,-2.757 3.99,-1.838 7.32,-4.474 9.992,-7.909 2.67,-3.435 4.664,-7.576 5.986,-12.428 1.317,-4.85 1.98,-10.288 1.98,-16.316 0,-5.965 -0.66,-11.389 -1.98,-16.27 -1.322,-4.88 -3.316,-9.053 -5.986,-12.519 -2.67,-3.463 -6,-6.13 -9.992,-7.999 C 445.051,70.935 440.385,70 435.045,70 c -5.34,0 -10.008,0.935 -13.997,2.802 -3.991,1.87 -7.322,4.536 -9.992,8 -2.671,3.465 -4.68,7.637 -6.03,12.518 -1.35,4.881 -2.026,10.305 -2.026,16.27 0,6.026 0.675,11.465 2.025,16.316 1.35,4.852 3.36,8.993 6.031,12.428 2.67,3.435 6,6.07 9.992,7.91 3.99,1.838 8.656,2.756 13.997,2.756 z"
         fill="currentColor"
         id="path10" />
      <path
         d="M 530.57,152 H 510.52 L 474,60 h 18.35 c 1.61,0 2.967,0.39 4.072,1.166 1.103,0.778 1.865,1.763 2.283,2.959 l 17.722,49.138 a 92.762,92.762 0 0 1 2.551,8.429 c 0.686,2.751 1.298,5.5 1.835,8.25 0.537,-2.75 1.148,-5.499 1.835,-8.25 a 77.713,77.713 0 0 1 2.64,-8.429 l 18.171,-49.138 c 0.417,-1.196 1.164,-2.181 2.238,-2.96 C 546.771,60.389 548.053,60 549.546,60 H 567 Z M 572,61 h 23 v 92 h -23 z m 38,92 V 60.443 h 13.624 c 2.887,0 4.78,1.354 5.682,4.06 l 1.443,6.856 a 52.7,52.7 0 0 1 5.097,-4.962 32.732,32.732 0 0 1 5.683,-3.879 30.731,30.731 0 0 1 6.496,-2.57 C 650.339,59.316 652.88,59 655.649,59 c 5.832,0 10.63,1.579 14.39,4.736 3.758,3.157 6.57,7.352 8.434,12.585 1.444,-3.068 3.248,-5.698 5.413,-7.894 2.165,-2.194 4.541,-3.984 7.127,-5.367 a 32.848,32.848 0 0 1 8.254,-3.068 39.597,39.597 0 0 1 8.796,-0.992 c 5.111,0 9.653,0.783 13.622,2.345 3.97,1.565 7.307,3.849 10.014,6.857 2.706,3.007 4.766,6.675 6.18,11.005 C 739.29,83.537 740,88.5 740,94.092 V 153 H 717.716 V 94.092 c 0,-5.894 -1.294,-10.329 -3.878,-13.306 -2.587,-2.977 -6.376,-4.465 -11.368,-4.465 -2.286,0 -4.404,0.391 -6.358,1.172 a 15.189,15.189 0 0 0 -5.144,3.383 c -1.473,1.474 -2.631,3.324 -3.474,5.548 -0.842,2.225 -1.263,4.781 -1.263,7.668 V 153 h -22.37 V 94.092 c 0,-6.194 -1.249,-10.704 -3.744,-13.532 -2.497,-2.825 -6.18,-4.24 -11.051,-4.24 -3.19,0 -6.18,0.798 -8.976,2.391 -2.799,1.593 -5.399,3.775 -7.804,6.54 V 153 Z M 572,30 h 23 v 19 h -23 z"
         fill="currentColor"
         fill-opacity="0.8"
         id="path11" />
    </g>
  </g>
  <metadata
     id="metadata12">
    <rdf:RDF>
      <cc:Work
         rdf:about="">
        <dc:title>Neovim</dc:title>
      </cc:Work>
    </rdf:RDF>
  </metadata>
</svg>
